<svg xmlns="http://www.w3.org/2000/svg" version="1.1" xmlns:xlink="http://www.w3.org/1999/xlink" xmlns:svgjs="http://svgjs.dev/svgjs" viewBox="0 0 2400 800"><defs><linearGradient x1="50%" y1="0%" x2="50%" y2="100%" id="sssurf-grad"><stop stop-color="hsl(208, 77%, 50%)" stop-opacity="1" offset="0%"></stop><stop stop-color="hsl(208, 74%, 93%)" stop-opacity="1" offset="100%"></stop></linearGradient></defs><g fill="url(#sssurf-grad)" transform="matrix(1,0,0,1,10.8282470703125,49.18564176559448)"><path d="M-10,10C33.75,12.708333333333332,114.58333333333334,26.958333333333332,200,23C285.41666666666663,19.041666666666668,316.66666666666663,-8.791666666666666,400,-9C483.33333333333337,-9.208333333333334,516.6666666666666,25.958333333333332,600,22C683.3333333333334,18.041666666666668,716.6666666666666,-33.208333333333336,800,-28C883.3333333333334,-22.791666666666664,916.6666666666666,44.291666666666664,1000,47C1083.3333333333333,49.708333333333336,1116.6666666666667,-11.458333333333332,1200,-15C1283.3333333333333,-18.541666666666668,1316.6666666666667,28.125,1400,30C1483.3333333333333,31.875,1516.6666666666667,-10.375,1600,-6C1683.3333333333333,-1.625,1716.6666666666667,52.875,1800,51C1883.3333333333333,49.125,1916.6666666666667,-14.583333333333334,2000,-15C2083.3333333333335,-15.416666666666666,2118.75,43.791666666666664,2200,49C2281.25,54.208333333333336,2296.25,-63.125,2390,10C2483.75,83.125,3252.0833333333335,214.58333333333331,2650,400C2047.9166666666665,585.4166666666667,156.25,795.8333333333334,-500,900" transform="matrix(1,0,0,1,0,35)" opacity="0.05"></path><path d="M-10,10C33.75,12.708333333333332,114.58333333333334,26.958333333333332,200,23C285.41666666666663,19.041666666666668,316.66666666666663,-8.791666666666666,400,-9C483.33333333333337,-9.208333333333334,516.6666666666666,25.958333333333332,600,22C683.3333333333334,18.041666666666668,716.6666666666666,-33.208333333333336,800,-28C883.3333333333334,-22.791666666666664,916.6666666666666,44.291666666666664,1000,47C1083.3333333333333,49.708333333333336,1116.6666666666667,-11.458333333333332,1200,-15C1283.3333333333333,-18.541666666666668,1316.6666666666667,28.125,1400,30C1483.3333333333333,31.875,1516.6666666666667,-10.375,1600,-6C1683.3333333333333,-1.625,1716.6666666666667,52.875,1800,51C1883.3333333333333,49.125,1916.6666666666667,-14.583333333333334,2000,-15C2083.3333333333335,-15.416666666666666,2118.75,43.791666666666664,2200,49C2281.25,54.208333333333336,2296.25,-63.125,2390,10C2483.75,83.125,3252.0833333333335,214.58333333333331,2650,400C2047.9166666666665,585.4166666666667,156.25,795.8333333333334,-500,900" transform="matrix(1,0,0,1,0,70)" opacity="0.11"></path><path d="M-10,10C33.75,12.708333333333332,114.58333333333334,26.958333333333332,200,23C285.41666666666663,19.041666666666668,316.66666666666663,-8.791666666666666,400,-9C483.33333333333337,-9.208333333333334,516.6666666666666,25.958333333333332,600,22C683.3333333333334,18.041666666666668,716.6666666666666,-33.208333333333336,800,-28C883.3333333333334,-22.791666666666664,916.6666666666666,44.291666666666664,1000,47C1083.3333333333333,49.708333333333336,1116.6666666666667,-11.458333333333332,1200,-15C1283.3333333333333,-18.541666666666668,1316.6666666666667,28.125,1400,30C1483.3333333333333,31.875,1516.6666666666667,-10.375,1600,-6C1683.3333333333333,-1.625,1716.6666666666667,52.875,1800,51C1883.3333333333333,49.125,1916.6666666666667,-14.583333333333334,2000,-15C2083.3333333333335,-15.416666666666666,2118.75,43.791666666666664,2200,49C2281.25,54.208333333333336,2296.25,-63.125,2390,10C2483.75,83.125,3252.0833333333335,214.58333333333331,2650,400C2047.9166666666665,585.4166666666667,156.25,795.8333333333334,-500,900" transform="matrix(1,0,0,1,0,105)" opacity="0.17"></path><path d="M-10,10C33.75,12.708333333333332,114.58333333333334,26.958333333333332,200,23C285.41666666666663,19.041666666666668,316.66666666666663,-8.791666666666666,400,-9C483.33333333333337,-9.208333333333334,516.6666666666666,25.958333333333332,600,22C683.3333333333334,18.041666666666668,716.6666666666666,-33.208333333333336,800,-28C883.3333333333334,-22.791666666666664,916.6666666666666,44.291666666666664,1000,47C1083.3333333333333,49.708333333333336,1116.6666666666667,-11.458333333333332,1200,-15C1283.3333333333333,-18.541666666666668,1316.6666666666667,28.125,1400,30C1483.3333333333333,31.875,1516.6666666666667,-10.375,1600,-6C1683.3333333333333,-1.625,1716.6666666666667,52.875,1800,51C1883.3333333333333,49.125,1916.6666666666667,-14.583333333333334,2000,-15C2083.3333333333335,-15.416666666666666,2118.75,43.791666666666664,2200,49C2281.25,54.208333333333336,2296.25,-63.125,2390,10C2483.75,83.125,3252.0833333333335,214.58333333333331,2650,400C2047.9166666666665,585.4166666666667,156.25,795.8333333333334,-500,900" transform="matrix(1,0,0,1,0,140)" opacity="0.23"></path><path d="M-10,10C33.75,12.708333333333332,114.58333333333334,26.958333333333332,200,23C285.41666666666663,19.041666666666668,316.66666666666663,-8.791666666666666,400,-9C483.33333333333337,-9.208333333333334,516.6666666666666,25.958333333333332,600,22C683.3333333333334,18.041666666666668,716.6666666666666,-33.208333333333336,800,-28C883.3333333333334,-22.791666666666664,916.6666666666666,44.291666666666664,1000,47C1083.3333333333333,49.708333333333336,1116.6666666666667,-11.458333333333332,1200,-15C1283.3333333333333,-18.541666666666668,1316.6666666666667,28.125,1400,30C1483.3333333333333,31.875,1516.6666666666667,-10.375,1600,-6C1683.3333333333333,-1.625,1716.6666666666667,52.875,1800,51C1883.3333333333333,49.125,1916.6666666666667,-14.583333333333334,2000,-15C2083.3333333333335,-15.416666666666666,2118.75,43.791666666666664,2200,49C2281.25,54.208333333333336,2296.25,-63.125,2390,10C2483.75,83.125,3252.0833333333335,214.58333333333331,2650,400C2047.9166666666665,585.4166666666667,156.25,795.8333333333334,-500,900" transform="matrix(1,0,0,1,0,175)" opacity="0.29"></path><path d="M-10,10C33.75,12.708333333333332,114.58333333333334,26.958333333333332,200,23C285.41666666666663,19.041666666666668,316.66666666666663,-8.791666666666666,400,-9C483.33333333333337,-9.208333333333334,516.6666666666666,25.958333333333332,600,22C683.3333333333334,18.041666666666668,716.6666666666666,-33.208333333333336,800,-28C883.3333333333334,-22.791666666666664,916.6666666666666,44.291666666666664,1000,47C1083.3333333333333,49.708333333333336,1116.6666666666667,-11.458333333333332,1200,-15C1283.3333333333333,-18.541666666666668,1316.6666666666667,28.125,1400,30C1483.3333333333333,31.875,1516.6666666666667,-10.375,1600,-6C1683.3333333333333,-1.625,1716.6666666666667,52.875,1800,51C1883.3333333333333,49.125,1916.6666666666667,-14.583333333333334,2000,-15C2083.3333333333335,-15.416666666666666,2118.75,43.791666666666664,2200,49C2281.25,54.208333333333336,2296.25,-63.125,2390,10C2483.75,83.125,3252.0833333333335,214.58333333333331,2650,400C2047.9166666666665,585.4166666666667,156.25,795.8333333333334,-500,900" transform="matrix(1,0,0,1,0,210)" opacity="0.35"></path><path d="M-10,10C33.75,12.708333333333332,114.58333333333334,26.958333333333332,200,23C285.41666666666663,19.041666666666668,316.66666666666663,-8.791666666666666,400,-9C483.33333333333337,-9.208333333333334,516.6666666666666,25.958333333333332,600,22C683.3333333333334,18.041666666666668,716.6666666666666,-33.208333333333336,800,-28C883.3333333333334,-22.791666666666664,916.6666666666666,44.291666666666664,1000,47C1083.3333333333333,49.708333333333336,1116.6666666666667,-11.458333333333332,1200,-15C1283.3333333333333,-18.541666666666668,1316.6666666666667,28.125,1400,30C1483.3333333333333,31.875,1516.6666666666667,-10.375,1600,-6C1683.3333333333333,-1.625,1716.6666666666667,52.875,1800,51C1883.3333333333333,49.125,1916.6666666666667,-14.583333333333334,2000,-15C2083.3333333333335,-15.416666666666666,2118.75,43.791666666666664,2200,49C2281.25,54.208333333333336,2296.25,-63.125,2390,10C2483.75,83.125,3252.0833333333335,214.58333333333331,2650,400C2047.9166666666665,585.4166666666667,156.25,795.8333333333334,-500,900" transform="matrix(1,0,0,1,0,245)" opacity="0.41"></path><path d="M-10,10C33.75,12.708333333333332,114.58333333333334,26.958333333333332,200,23C285.41666666666663,19.041666666666668,316.66666666666663,-8.791666666666666,400,-9C483.33333333333337,-9.208333333333334,516.6666666666666,25.958333333333332,600,22C683.3333333333334,18.041666666666668,716.6666666666666,-33.208333333333336,800,-28C883.3333333333334,-22.791666666666664,916.6666666666666,44.291666666666664,1000,47C1083.3333333333333,49.708333333333336,1116.6666666666667,-11.458333333333332,1200,-15C1283.3333333333333,-18.541666666666668,1316.6666666666667,28.125,1400,30C1483.3333333333333,31.875,1516.6666666666667,-10.375,1600,-6C1683.3333333333333,-1.625,1716.6666666666667,52.875,1800,51C1883.3333333333333,49.125,1916.6666666666667,-14.583333333333334,2000,-15C2083.3333333333335,-15.416666666666666,2118.75,43.791666666666664,2200,49C2281.25,54.208333333333336,2296.25,-63.125,2390,10C2483.75,83.125,3252.0833333333335,214.58333333333331,2650,400C2047.9166666666665,585.4166666666667,156.25,795.8333333333334,-500,900" transform="matrix(1,0,0,1,0,280)" opacity="0.47"></path><path d="M-10,10C33.75,12.708333333333332,114.58333333333334,26.958333333333332,200,23C285.41666666666663,19.041666666666668,316.66666666666663,-8.791666666666666,400,-9C483.33333333333337,-9.208333333333334,516.6666666666666,25.958333333333332,600,22C683.3333333333334,18.041666666666668,716.6666666666666,-33.208333333333336,800,-28C883.3333333333334,-22.791666666666664,916.6666666666666,44.291666666666664,1000,47C1083.3333333333333,49.708333333333336,1116.6666666666667,-11.458333333333332,1200,-15C1283.3333333333333,-18.541666666666668,1316.6666666666667,28.125,1400,30C1483.3333333333333,31.875,1516.6666666666667,-10.375,1600,-6C1683.3333333333333,-1.625,1716.6666666666667,52.875,1800,51C1883.3333333333333,49.125,1916.6666666666667,-14.583333333333334,2000,-15C2083.3333333333335,-15.416666666666666,2118.75,43.791666666666664,2200,49C2281.25,54.208333333333336,2296.25,-63.125,2390,10C2483.75,83.125,3252.0833333333335,214.58333333333331,2650,400C2047.9166666666665,585.4166666666667,156.25,795.8333333333334,-500,900" transform="matrix(1,0,0,1,0,315)" opacity="0.53"></path><path d="M-10,10C33.75,12.708333333333332,114.58333333333334,26.958333333333332,200,23C285.41666666666663,19.041666666666668,316.66666666666663,-8.791666666666666,400,-9C483.33333333333337,-9.208333333333334,516.6666666666666,25.958333333333332,600,22C683.3333333333334,18.041666666666668,716.6666666666666,-33.208333333333336,800,-28C883.3333333333334,-22.791666666666664,916.6666666666666,44.291666666666664,1000,47C1083.3333333333333,49.708333333333336,1116.6666666666667,-11.458333333333332,1200,-15C1283.3333333333333,-18.541666666666668,1316.6666666666667,28.125,1400,30C1483.3333333333333,31.875,1516.6666666666667,-10.375,1600,-6C1683.3333333333333,-1.625,1716.6666666666667,52.875,1800,51C1883.3333333333333,49.125,1916.6666666666667,-14.583333333333334,2000,-15C2083.3333333333335,-15.416666666666666,2118.75,43.791666666666664,2200,49C2281.25,54.208333333333336,2296.25,-63.125,2390,10C2483.75,83.125,3252.0833333333335,214.58333333333331,2650,400C2047.9166666666665,585.4166666666667,156.25,795.8333333333334,-500,900" transform="matrix(1,0,0,1,0,350)" opacity="0.58"></path><path d="M-10,10C33.75,12.708333333333332,114.58333333333334,26.958333333333332,200,23C285.41666666666663,19.041666666666668,316.66666666666663,-8.791666666666666,400,-9C483.33333333333337,-9.208333333333334,516.6666666666666,25.958333333333332,600,22C683.3333333333334,18.041666666666668,716.6666666666666,-33.208333333333336,800,-28C883.3333333333334,-22.791666666666664,916.6666666666666,44.291666666666664,1000,47C1083.3333333333333,49.708333333333336,1116.6666666666667,-11.458333333333332,1200,-15C1283.3333333333333,-18.541666666666668,1316.6666666666667,28.125,1400,30C1483.3333333333333,31.875,1516.6666666666667,-10.375,1600,-6C1683.3333333333333,-1.625,1716.6666666666667,52.875,1800,51C1883.3333333333333,49.125,1916.6666666666667,-14.583333333333334,2000,-15C2083.3333333333335,-15.416666666666666,2118.75,43.791666666666664,2200,49C2281.25,54.208333333333336,2296.25,-63.125,2390,10C2483.75,83.125,3252.0833333333335,214.58333333333331,2650,400C2047.9166666666665,585.4166666666667,156.25,795.8333333333334,-500,900" transform="matrix(1,0,0,1,0,385)" opacity="0.64"></path><path d="M-10,10C33.75,12.708333333333332,114.58333333333334,26.958333333333332,200,23C285.41666666666663,19.041666666666668,316.66666666666663,-8.791666666666666,400,-9C483.33333333333337,-9.208333333333334,516.6666666666666,25.958333333333332,600,22C683.3333333333334,18.041666666666668,716.6666666666666,-33.208333333333336,800,-28C883.3333333333334,-22.791666666666664,916.6666666666666,44.291666666666664,1000,47C1083.3333333333333,49.708333333333336,1116.6666666666667,-11.458333333333332,1200,-15C1283.3333333333333,-18.541666666666668,1316.6666666666667,28.125,1400,30C1483.3333333333333,31.875,1516.6666666666667,-10.375,1600,-6C1683.3333333333333,-1.625,1716.6666666666667,52.875,1800,51C1883.3333333333333,49.125,1916.6666666666667,-14.583333333333334,2000,-15C2083.3333333333335,-15.416666666666666,2118.75,43.791666666666664,2200,49C2281.25,54.208333333333336,2296.25,-63.125,2390,10C2483.75,83.125,3252.0833333333335,214.58333333333331,2650,400C2047.9166666666665,585.4166666666667,156.25,795.8333333333334,-500,900" transform="matrix(1,0,0,1,0,420)" opacity="0.70"></path><path d="M-10,10C33.75,12.708333333333332,114.58333333333334,26.958333333333332,200,23C285.41666666666663,19.041666666666668,316.66666666666663,-8.791666666666666,400,-9C483.33333333333337,-9.208333333333334,516.6666666666666,25.958333333333332,600,22C683.3333333333334,18.041666666666668,716.6666666666666,-33.208333333333336,800,-28C883.3333333333334,-22.791666666666664,916.6666666666666,44.291666666666664,1000,47C1083.3333333333333,49.708333333333336,1116.6666666666667,-11.458333333333332,1200,-15C1283.3333333333333,-18.541666666666668,1316.6666666666667,28.125,1400,30C1483.3333333333333,31.875,1516.6666666666667,-10.375,1600,-6C1683.3333333333333,-1.625,1716.6666666666667,52.875,1800,51C1883.3333333333333,49.125,1916.6666666666667,-14.583333333333334,2000,-15C2083.3333333333335,-15.416666666666666,2118.75,43.791666666666664,2200,49C2281.25,54.208333333333336,2296.25,-63.125,2390,10C2483.75,83.125,3252.0833333333335,214.58333333333331,2650,400C2047.9166666666665,585.4166666666667,156.25,795.8333333333334,-500,900" transform="matrix(1,0,0,1,0,455)" opacity="0.76"></path><path d="M-10,10C33.75,12.708333333333332,114.58333333333334,26.958333333333332,200,23C285.41666666666663,19.041666666666668,316.66666666666663,-8.791666666666666,400,-9C483.33333333333337,-9.208333333333334,516.6666666666666,25.958333333333332,600,22C683.3333333333334,18.041666666666668,716.6666666666666,-33.208333333333336,800,-28C883.3333333333334,-22.791666666666664,916.6666666666666,44.291666666666664,1000,47C1083.3333333333333,49.708333333333336,1116.6666666666667,-11.458333333333332,1200,-15C1283.3333333333333,-18.541666666666668,1316.6666666666667,28.125,1400,30C1483.3333333333333,31.875,1516.6666666666667,-10.375,1600,-6C1683.3333333333333,-1.625,1716.6666666666667,52.875,1800,51C1883.3333333333333,49.125,1916.6666666666667,-14.583333333333334,2000,-15C2083.3333333333335,-15.416666666666666,2118.75,43.791666666666664,2200,49C2281.25,54.208333333333336,2296.25,-63.125,2390,10C2483.75,83.125,3252.0833333333335,214.58333333333331,2650,400C2047.9166666666665,585.4166666666667,156.25,795.8333333333334,-500,900" transform="matrix(1,0,0,1,0,490)" opacity="0.82"></path><path d="M-10,10C33.75,12.708333333333332,114.58333333333334,26.958333333333332,200,23C285.41666666666663,19.041666666666668,316.66666666666663,-8.791666666666666,400,-9C483.33333333333337,-9.208333333333334,516.6666666666666,25.958333333333332,600,22C683.3333333333334,18.041666666666668,716.6666666666666,-33.208333333333336,800,-28C883.3333333333334,-22.791666666666664,916.6666666666666,44.291666666666664,1000,47C1083.3333333333333,49.708333333333336,1116.6666666666667,-11.458333333333332,1200,-15C1283.3333333333333,-18.541666666666668,1316.6666666666667,28.125,1400,30C1483.3333333333333,31.875,1516.6666666666667,-10.375,1600,-6C1683.3333333333333,-1.625,1716.6666666666667,52.875,1800,51C1883.3333333333333,49.125,1916.6666666666667,-14.583333333333334,2000,-15C2083.3333333333335,-15.416666666666666,2118.75,43.791666666666664,2200,49C2281.25,54.208333333333336,2296.25,-63.125,2390,10C2483.75,83.125,3252.0833333333335,214.58333333333331,2650,400C2047.9166666666665,585.4166666666667,156.25,795.8333333333334,-500,900" transform="matrix(1,0,0,1,0,525)" opacity="0.88"></path><path d="M-10,10C33.75,12.708333333333332,114.58333333333334,26.958333333333332,200,23C285.41666666666663,19.041666666666668,316.66666666666663,-8.791666666666666,400,-9C483.33333333333337,-9.208333333333334,516.6666666666666,25.958333333333332,600,22C683.3333333333334,18.041666666666668,716.6666666666666,-33.208333333333336,800,-28C883.3333333333334,-22.791666666666664,916.6666666666666,44.291666666666664,1000,47C1083.3333333333333,49.708333333333336,1116.6666666666667,-11.458333333333332,1200,-15C1283.3333333333333,-18.541666666666668,1316.6666666666667,28.125,1400,30C1483.3333333333333,31.875,1516.6666666666667,-10.375,1600,-6C1683.3333333333333,-1.625,1716.6666666666667,52.875,1800,51C1883.3333333333333,49.125,1916.6666666666667,-14.583333333333334,2000,-15C2083.3333333333335,-15.416666666666666,2118.75,43.791666666666664,2200,49C2281.25,54.208333333333336,2296.25,-63.125,2390,10C2483.75,83.125,3252.0833333333335,214.58333333333331,2650,400C2047.9166666666665,585.4166666666667,156.25,795.8333333333334,-500,900" transform="matrix(1,0,0,1,0,560)" opacity="0.94"></path><path d="M-10,10C33.75,12.708333333333332,114.58333333333334,26.958333333333332,200,23C285.41666666666663,19.041666666666668,316.66666666666663,-8.791666666666666,400,-9C483.33333333333337,-9.208333333333334,516.6666666666666,25.958333333333332,600,22C683.3333333333334,18.041666666666668,716.6666666666666,-33.208333333333336,800,-28C883.3333333333334,-22.791666666666664,916.6666666666666,44.291666666666664,1000,47C1083.3333333333333,49.708333333333336,1116.6666666666667,-11.458333333333332,1200,-15C1283.3333333333333,-18.541666666666668,1316.6666666666667,28.125,1400,30C1483.3333333333333,31.875,1516.6666666666667,-10.375,1600,-6C1683.3333333333333,-1.625,1716.6666666666667,52.875,1800,51C1883.3333333333333,49.125,1916.6666666666667,-14.583333333333334,2000,-15C2083.3333333333335,-15.416666666666666,2118.75,43.791666666666664,2200,49C2281.25,54.208333333333336,2296.25,-63.125,2390,10C2483.75,83.125,3252.0833333333335,214.58333333333331,2650,400C2047.9166666666665,585.4166666666667,156.25,795.8333333333334,-500,900" transform="matrix(1,0,0,1,0,595)" opacity="1.00"></path></g></svg>